<svg width="156" height="156" viewBox="0 0 156 156" fill="none" xmlns="http://www.w3.org/2000/svg">
  <path d="M71.5 32.6484C79.3629 32.6484 86.5345 34.1094 92.9795 37.0693C99.4395 40.0362 104.704 44.3815 108.738 50.0908L109.336 50.9443C112.267 55.2532 114.33 60.156 115.539 65.6279C116.364 69.3585 113.371 72.5371 109.816 72.5371H96.999C93.9396 72.5369 91.6313 70.2819 90.8691 67.6934C90.2738 65.6714 89.3869 63.8772 88.2139 62.2949L88.2021 62.2793L88.1914 62.2637C86.488 59.8707 84.2604 58.0423 81.4707 56.7705C78.6599 55.4892 75.5065 54.832 71.9785 54.832C67.1826 54.832 63.0678 56.0358 59.5576 58.3896L59.5527 58.3926C56.0946 60.698 53.337 64.1079 51.3223 68.7373L51.1348 69.1748C49.2521 73.655 48.2754 79.0808 48.2754 85.5078C48.2754 92.3297 49.317 97.9842 51.3164 102.539L51.7021 103.376C53.6732 107.489 56.2967 110.586 59.543 112.753C63.062 115.026 67.1169 116.184 71.7734 116.184C75.3117 116.184 78.419 115.546 81.1318 114.312L81.1416 114.308C83.9172 113.065 86.1874 111.321 87.9854 109.073C89.189 107.538 90.1213 105.802 90.7803 103.854C91.6233 101.36 93.9225 99.2344 96.9033 99.2637L109.895 99.3916C113.399 99.4261 116.411 102.585 115.488 106.324C114.306 111.113 112.241 115.626 109.312 119.858C105.466 125.483 100.286 129.98 93.8223 133.354L93.8115 133.36C87.2891 136.717 79.8345 138.367 71.5 138.367C62.3445 138.367 54.0877 136.287 46.7822 132.085L46.7734 132.08C39.4496 127.82 33.7236 121.672 29.5967 113.703L29.5938 113.696L29.5908 113.69C25.5013 105.654 23.4941 96.2386 23.4941 85.5078C23.4941 74.6862 25.5234 65.2419 29.665 57.2441L29.6699 57.2363C33.8412 49.273 39.5652 43.1486 46.8457 38.9336L46.8506 38.9307C54.1545 34.7297 62.3881 32.6484 71.5 32.6484ZM71.5 34.6484C62.7044 34.6484 54.8203 36.6536 47.8477 40.6641C40.9206 44.6745 35.4518 50.5078 31.4414 58.1641C27.4766 65.8203 25.4941 74.9349 25.4941 85.5078C25.4941 95.9896 27.4538 105.081 31.373 112.783C35.3379 120.439 40.8066 126.296 47.7793 130.352C54.752 134.362 62.6589 136.367 71.5 136.367C79.5664 136.367 86.6986 134.772 92.8965 131.582C99.0944 128.346 104.016 124.062 107.662 118.73C110.463 114.685 112.424 110.389 113.546 105.845C114.101 103.597 112.379 101.547 110.098 101.399L109.875 101.392L96.8838 101.264C94.9359 101.245 93.2987 102.649 92.6748 104.494L92.5342 104.896C91.8126 106.897 90.817 108.706 89.5469 110.322C87.5417 112.829 85.0124 114.766 81.959 116.133C78.9512 117.5 75.556 118.184 71.7734 118.184C66.7604 118.184 62.3171 116.93 58.4434 114.424C54.6152 111.872 51.6302 108.18 49.4883 103.35C47.3464 98.4733 46.2754 92.526 46.2754 85.5078C46.2754 78.6719 47.3464 72.8158 49.4883 67.9395C51.6302 63.0176 54.6152 59.2806 58.4434 56.7285C62.3171 54.1309 66.8288 52.832 71.9785 52.832C75.7611 52.832 79.2018 53.5384 82.3008 54.9512C85.3997 56.3639 87.9062 58.4147 89.8203 61.1035C91.1405 62.8843 92.1298 64.8931 92.7881 67.1289C93.3527 69.0458 95.0007 70.5369 96.999 70.5371H109.816C112.227 70.5371 114.106 68.4136 113.586 66.0596C112.349 60.4649 110.192 55.5316 107.115 51.2598C103.287 45.8366 98.2969 41.7122 92.1445 38.8867C85.9922 36.0612 79.1107 34.6484 71.5 34.6484Z" fill="white"/>
  <path d="M96.9994 70.5371C95.0008 70.5371 93.3526 69.0457 92.7881 67.1285C92.1298 64.8926 91.1405 62.8843 89.8203 61.1035C87.9062 58.4147 85.3997 56.3639 82.3008 54.9512C79.2018 53.5384 75.7611 52.832 71.9785 52.832C66.8288 52.832 62.3171 54.1309 58.4434 56.7285C54.6152 59.2806 51.6302 63.0176 49.4883 67.9395C47.3464 72.8158 46.2754 78.6719 46.2754 85.5078C46.2754 92.526 47.3464 98.4733 49.4883 103.35C51.6302 108.18 54.6152 111.872 58.4434 114.424C62.3171 116.93 66.7604 118.184 71.7734 118.184C75.556 118.184 78.9512 117.5 81.959 116.133C85.0124 114.766 87.5417 112.829 89.5469 110.322C90.9017 108.598 91.9445 106.655 92.6752 104.494C93.2991 102.649 94.9355 101.244 96.8834 101.264L109.875 101.391C112.265 101.415 114.119 103.524 113.546 105.845C112.425 110.389 110.463 114.685 107.662 118.73C104.016 124.062 99.0944 128.346 92.8965 131.582C86.6986 134.772 79.5664 136.367 71.5 136.367C62.6589 136.367 54.752 134.362 47.7793 130.352C40.8066 126.296 35.3379 120.439 31.373 112.783C27.4538 105.081 25.4941 95.9896 25.4941 85.5078C25.4941 74.9349 27.4766 65.8203 31.4414 58.1641C35.4518 50.5078 40.9206 44.6745 47.8477 40.6641C54.8203 36.6536 62.7044 34.6484 71.5 34.6484C79.1107 34.6484 85.9922 36.0612 92.1445 38.8867C98.2969 41.7122 103.287 45.8366 107.115 51.2598C110.192 55.5317 112.349 60.465 113.586 66.0599C114.106 68.4139 112.227 70.5371 109.816 70.5371H96.9994Z" fill="white"/>
  <path d="M117.557 13.6602C117.872 12.7721 119.128 12.7721 119.443 13.6602L123.704 25.6872C123.805 25.9715 124.029 26.1951 124.313 26.2958L136.34 30.5574C137.228 30.8721 137.228 32.1279 136.34 32.4426L124.313 36.7042C124.029 36.8049 123.805 37.0285 123.704 37.3128L119.443 49.3399C119.128 50.2279 117.872 50.2279 117.557 49.3399L113.296 37.3128C113.195 37.0285 112.971 36.8049 112.687 36.7042L100.66 32.4426C99.7721 32.1279 99.7721 30.8721 100.66 30.5574L112.687 26.2958C112.971 26.1951 113.195 25.9715 113.296 25.6872L117.557 13.6602Z" fill="white"/>
</svg>
